<?xml version="1.0" standalone="no"?>
<!DOCTYPE svg PUBLIC "-//W3C//DTD SVG 20010904//EN"
 "http://www.w3.org/TR/2001/REC-SVG-20010904/DTD/svg10.dtd">
<svg version="1.0" xmlns="http://www.w3.org/2000/svg"
 width="584.000000pt" height="451.000000pt" viewBox="0 0 584.000000 451.000000"
 preserveAspectRatio="xMidYMid meet">

<g transform="translate(0.000000,451.000000) scale(0.100000,-0.100000)"
fill="#000000" stroke="none">
<path d="M4800 4041 c-15 -28 -12 -51 5 -51 8 0 15 5 15 11 0 5 -4 7 -10 4 -5
-3 -10 1 -10 9 0 9 6 16 14 16 8 0 16 7 20 15 8 22 -21 19 -34 -4z"/>
<path d="M4853 4049 c-7 -7 -8 -21 -3 -40 14 -47 21 -52 37 -30 8 12 19 19 24
16 5 -4 9 5 9 19 0 36 -44 58 -67 35z m41 -34 c-4 -8 -10 -12 -15 -9 -11 6 -2
24 11 24 5 0 7 -7 4 -15z"/>
<path d="M831 3984 c0 -11 3 -14 6 -6 3 7 2 16 -1 19 -3 4 -6 -2 -5 -13z"/>
<path d="M875 3989 c-4 -6 -4 -13 -1 -16 3 -4 6 0 6 8 0 11 2 11 10 -1 8 -13
10 -12 10 3 0 19 -15 23 -25 6z"/>
<path d="M910 3991 c0 -6 4 -13 10 -16 6 -3 7 1 4 9 -7 18 -14 21 -14 7z"/>
<path d="M956 3983 c12 -13 16 -12 29 1 13 13 12 15 -14 14 -25 -1 -28 -3 -15
-15z"/>
<path d="M1013 3987 c-3 -5 -2 -11 1 -14 3 -4 6 0 6 8 0 10 3 11 8 2 5 -8 12
-8 25 2 16 12 16 13 -8 11 -15 0 -29 -5 -32 -9z"/>
<path d="M1083 3987 c-3 -5 -2 -11 1 -14 3 -4 6 -1 6 6 0 7 4 10 8 7 4 -2 14
-1 22 4 11 7 9 9 -8 7 -13 -1 -26 -5 -29 -10z"/>
<path d="M4622 3970 c0 -14 2 -19 5 -12 2 6 2 18 0 25 -3 6 -5 1 -5 -13z"/>
<path d="M4807 3934 c-9 -15 18 -38 35 -31 9 4 7 6 -4 6 -9 1 -18 9 -20 19 -2
11 -6 13 -11 6z"/>
<path d="M958 3843 c18 -2 45 -2 60 0 15 2 0 4 -33 4 -33 0 -45 -2 -27 -4z"/>
<path d="M846 3574 c-10 -9 -16 -33 -16 -59 0 -55 19 -75 71 -75 56 0 83 29
76 83 -3 23 -14 47 -23 54 -25 18 -89 16 -108 -3z m89 -54 c0 -32 -3 -35 -32
-38 -32 -3 -44 10 -23 23 6 3 10 17 10 31 0 21 4 25 23 22 18 -2 22 -9 22 -38z"/>
<path d="M520 3510 c-43 -43 -14 -110 48 -110 40 0 62 23 62 65 0 58 -69 86
-110 45z m50 -36 c0 -18 -6 -35 -12 -37 -8 -3 -6 -6 5 -6 13 -1 17 8 19 42 l1
42 4 -37 c2 -21 9 -38 14 -38 6 0 7 -4 4 -10 -3 -5 -21 -10 -40 -10 -32 0 -62
19 -33 21 10 0 10 2 1 6 -7 2 -13 15 -13 28 0 13 6 25 13 28 28 9 37 3 37 -29z
m37 -11 c-3 -10 -5 -4 -5 12 0 17 2 24 5 18 2 -7 2 -21 0 -30z"/>
<path d="M1108 3513 c6 -2 18 -2 25 0 6 3 1 5 -13 5 -14 0 -19 -2 -12 -5z"/>
<path d="M4456 3391 c-3 -4 6 -6 19 -3 14 2 25 6 25 8 0 8 -39 4 -44 -5z"/>
<path d="M4796 3341 c-4 -7 -5 -15 -2 -18 9 -9 19 4 14 18 -4 11 -6 11 -12 0z"/>
<path d="M4676 3328 c3 -4 9 -8 15 -8 5 0 9 4 9 8 0 5 -7 9 -15 9 -8 0 -12 -4
-9 -9z"/>
<path d="M4735 3330 c3 -5 8 -10 11 -10 2 0 4 5 4 10 0 6 -5 10 -11 10 -5 0
-7 -4 -4 -10z"/>
<path d="M4825 3330 c-3 -5 -1 -10 4 -10 6 0 11 5 11 10 0 6 -2 10 -4 10 -3 0
-8 -4 -11 -10z"/>
<path d="M4420 3190 c-12 -12 -20 -33 -20 -55 0 -47 29 -75 78 -75 43 0 55 6
71 37 31 59 -2 113 -69 113 -27 0 -47 -7 -60 -20z m90 -39 c0 -20 -8 -34 -25
-45 -32 -21 -45 -13 -45 28 0 40 5 46 42 46 24 0 28 -4 28 -29z"/>
<path d="M4460 3142 c0 -15 4 -20 16 -15 9 3 12 9 7 12 -4 3 -11 10 -15 15 -5
5 -8 0 -8 -12z"/>
<path d="M4675 3109 c-4 -6 -5 -12 -2 -15 2 -3 7 2 10 11 7 17 1 20 -8 4z"/>
<path d="M4821 3094 c0 -11 3 -14 6 -6 3 7 2 16 -1 19 -3 4 -6 -2 -5 -13z"/>
<path d="M4870 3099 c0 -5 5 -7 10 -4 6 3 10 8 10 11 0 2 -4 4 -10 4 -5 0 -10
-5 -10 -11z"/>
<path d="M2154 3068 c-4 -7 -3 -8 4 -4 16 9 15 -7 0 -22 -8 -8 -8 -12 -1 -12
11 0 23 22 23 41 0 13 -17 11 -26 -3z"/>
<path d="M2210 3073 c7 -3 7 -11 0 -24 -7 -13 -7 -19 0 -19 5 0 10 7 10 15 0
8 0 18 1 22 0 4 -4 8 -10 10 -7 1 -7 -1 -1 -4z"/>
<path d="M2240 3055 c0 -15 6 -25 14 -25 19 0 28 14 20 34 -10 25 -34 19 -34
-9z m30 -6 c0 -5 -4 -9 -10 -9 -5 0 -10 7 -10 16 0 8 5 12 10 9 6 -3 10 -10
10 -16z"/>
<path d="M2318 3073 c6 -2 10 -8 8 -12 -3 -4 -1 -13 5 -21 6 -11 9 -8 9 13 0
19 -5 27 -17 26 -11 0 -13 -3 -5 -6z"/>
<path d="M2374 3064 c3 -8 2 -12 -3 -9 -5 3 -12 1 -15 -4 -3 -5 1 -12 10 -15
23 -9 24 -8 24 19 0 14 -5 25 -11 25 -6 0 -8 -7 -5 -16z"/>
<path d="M2418 3072 c11 -7 10 -12 -3 -26 -15 -14 -15 -16 -1 -16 9 0 16 7 16
15 0 8 0 18 1 22 0 4 -5 9 -13 11 -11 3 -11 2 0 -6z"/>
<path d="M2472 3055 c0 -16 2 -22 5 -12 2 9 2 23 0 30 -3 6 -5 -1 -5 -18z"/>
<path d="M2509 3071 c12 -8 12 -12 2 -25 -8 -9 -9 -16 -3 -16 12 0 24 29 16
41 -3 5 -11 9 -17 9 -8 0 -7 -4 2 -9z"/>
<path d="M2548 3073 c6 -2 10 -8 8 -12 -3 -4 -1 -13 5 -21 6 -11 9 -8 9 13 0
19 -5 27 -17 26 -11 0 -13 -3 -5 -6z"/>
<path d="M4670 2864 c0 -8 5 -12 10 -9 6 4 8 11 5 16 -9 14 -15 11 -15 -7z"/>
<path d="M4801 2864 c0 -11 3 -14 6 -6 3 7 2 16 -1 19 -3 4 -6 -2 -5 -13z"/>
<path d="M4871 2864 c0 -11 3 -14 6 -6 3 7 2 16 -1 19 -3 4 -6 -2 -5 -13z"/>
<path d="M4890 2860 c0 -5 5 -10 11 -10 5 0 7 5 4 10 -3 6 -8 10 -11 10 -2 0
-4 -4 -4 -10z"/>
<path d="M4448 2699 c-21 -12 -23 -47 -5 -70 18 -24 81 -1 85 31 6 40 -41 62
-80 39z m44 -34 c5 -6 8 -5 8 3 0 6 4 12 8 12 5 0 9 -6 9 -13 0 -18 -36 -19
-61 -1 -21 15 -21 15 4 12 14 -2 28 -7 32 -13z"/>
<path d="M4797 2644 c-4 -4 -7 -14 -7 -23 0 -11 3 -12 11 -4 6 6 10 16 7 23
-2 6 -7 8 -11 4z"/>
<path d="M4710 2632 c0 -4 9 -8 20 -9 11 -1 20 2 20 5 0 4 -9 8 -20 9 -11 1
-20 -2 -20 -5z"/>
<path d="M830 2109 c0 -18 2 -19 15 -9 15 12 12 30 -6 30 -5 0 -9 -10 -9 -21z"/>
<path d="M870 2112 c0 -5 7 -9 15 -9 8 0 12 4 9 9 -3 4 -9 8 -15 8 -5 0 -9 -4
-9 -8z"/>
<path d="M931 2093 c1 -22 2 -23 6 -8 3 11 10 23 17 27 7 5 5 8 -6 8 -13 0
-18 -7 -17 -27z"/>
<path d="M971 2104 c0 -11 3 -14 6 -6 3 7 2 16 -1 19 -3 4 -6 -2 -5 -13z"/>
<path d="M1011 2104 c0 -11 3 -14 6 -6 3 7 2 16 -1 19 -3 4 -6 -2 -5 -13z"/>
<path d="M2528 2063 c7 -3 16 -2 19 1 4 3 -2 6 -13 5 -11 0 -14 -3 -6 -6z"/>
<path d="M3048 2063 c6 -2 18 -2 25 0 6 3 1 5 -13 5 -14 0 -19 -2 -12 -5z"/>
<path d="M3528 2049 c-22 -12 -24 -62 -3 -79 16 -13 65 -6 65 10 0 13 -17 13
-25 0 -7 -12 -32 -2 -39 16 -11 29 5 46 38 40 29 -5 30 -5 12 9 -23 17 -25 18
-48 4z"/>
<path d="M4143 2010 c0 -30 2 -43 4 -27 2 15 2 39 0 55 -2 15 -4 2 -4 -28z"/>
<path d="M3976 2042 c-7 -12 8 -75 20 -79 10 -3 10 7 5 80 -1 9 -18 9 -25 -1z"/>
<path d="M4061 2003 c1 -27 3 -40 6 -30 3 10 16 22 29 27 14 6 24 18 24 30 0
16 -7 20 -30 20 -29 0 -30 -1 -29 -47z m47 25 c-3 -7 -11 -13 -18 -13 -7 0
-15 6 -17 13 -3 7 4 12 17 12 13 0 20 -5 18 -12z"/>
<path d="M3816 2024 c-9 -8 -16 -21 -16 -28 0 -30 51 -49 66 -25 4 7 0 9 -14
5 -11 -4 -23 -2 -27 4 -4 6 4 10 19 10 19 0 26 5 26 19 0 10 -7 22 -16 25 -21
8 -20 8 -38 -10z m39 -14 c-3 -5 -13 -10 -21 -10 -8 0 -14 5 -14 10 0 6 9 10
21 10 11 0 17 -4 14 -10z"/>
<path d="M3908 2033 c-13 -3 -18 -15 -18 -39 0 -19 5 -34 10 -34 6 0 10 14 10
30 0 20 5 30 15 30 10 0 15 -10 15 -30 0 -16 5 -30 10 -30 14 0 12 54 -2 68
-7 7 -14 11 -17 11 -4 -1 -14 -3 -23 -6z"/>
<path d="M4182 2028 c-29 -29 -7 -66 41 -66 24 0 27 4 27 34 0 23 -5 34 -14
34 -8 0 -20 2 -28 5 -7 3 -19 0 -26 -7z m46 -31 c2 -12 -3 -17 -17 -17 -15 0
-21 6 -21 21 0 25 33 22 38 -4z"/>
<path d="M4288 2032 c-14 -3 -18 -13 -16 -40 l1 -37 4 33 c5 42 35 40 44 -3 7
-29 7 -29 8 6 1 38 -10 48 -41 41z"/>
<path d="M3610 2006 c0 -29 19 -46 48 -43 18 1 22 7 21 37 -1 31 -2 32 -8 10
-10 -35 -41 -40 -41 -6 0 14 -4 26 -10 26 -5 0 -10 -11 -10 -24z"/>
<path d="M3700 1995 c0 -19 5 -35 10 -35 6 0 10 13 10 29 0 16 6 32 13 34 6 3
2 6 -10 6 -20 1 -23 -4 -23 -34z"/>
<path d="M3761 1993 c1 -28 3 -31 6 -13 3 14 10 31 15 38 8 9 6 12 -6 12 -12
0 -16 -9 -15 -37z"/>
<path d="M1673 1943 c15 -2 37 -2 50 0 12 2 0 4 -28 4 -27 0 -38 -2 -22 -4z"/>
<path d="M1811 1864 c0 -11 3 -14 6 -6 3 7 2 16 -1 19 -3 4 -6 -2 -5 -13z"/>
<path d="M1841 1864 c0 -11 3 -14 6 -6 3 7 2 16 -1 19 -3 4 -6 -2 -5 -13z"/>
<path d="M2030 1862 c0 -5 7 -9 15 -9 8 0 12 4 9 9 -3 4 -9 8 -15 8 -5 0 -9
-4 -9 -8z"/>
<path d="M2070 1860 c0 -5 5 -10 10 -10 6 0 10 5 10 10 0 6 -4 10 -10 10 -5 0
-10 -4 -10 -10z"/>
<path d="M2490 1830 c0 -12 6 -20 13 -18 7 2 13 -1 14 -7 1 -5 -6 -8 -15 -7
-13 3 -14 1 -5 -8 6 -7 19 -10 27 -7 23 9 19 38 -6 45 -21 5 -21 6 -2 13 18 7
17 8 -3 8 -17 1 -23 -5 -23 -19z"/>
<path d="M2555 1840 c-8 -14 3 -30 21 -30 8 0 12 -5 9 -10 -4 -6 -12 -7 -18
-4 -9 5 -9 4 0 -6 17 -18 33 -3 33 31 0 22 -5 29 -19 29 -11 0 -23 -4 -26 -10z
m35 -10 c0 -5 -4 -10 -10 -10 -5 0 -10 5 -10 10 0 6 5 10 10 10 6 0 10 -4 10
-10z"/>
<path d="M2632 1830 c-16 -26 -15 -30 3 -30 8 0 15 -5 15 -12 0 -8 3 -8 9 -2
10 10 3 64 -8 64 -3 0 -12 -9 -19 -20z m18 -10 c0 -5 -5 -10 -11 -10 -5 0 -7
5 -4 10 3 6 8 10 11 10 2 0 4 -4 4 -10z"/>
<path d="M1801 1604 c0 -11 3 -14 6 -6 3 7 2 16 -1 19 -3 4 -6 -2 -5 -13z"/>
<path d="M1836 1607 c3 -10 9 -15 12 -12 3 3 0 11 -7 18 -10 9 -11 8 -5 -6z"/>
<path d="M1930 1605 c0 -8 2 -15 4 -15 2 0 6 7 10 15 3 8 1 15 -4 15 -6 0 -10
-7 -10 -15z"/>
<path d="M2060 1599 c0 -5 5 -7 10 -4 6 3 10 8 10 11 0 2 -4 4 -10 4 -5 0 -10
-5 -10 -11z"/>
<path d="M5553 1459 c3 -9 0 -23 -6 -30 -7 -8 -3 -6 8 3 16 15 17 20 6 30 -11
11 -13 10 -8 -3z"/>
<path d="M2680 1425 c0 -8 5 -15 10 -15 6 0 10 7 10 15 0 8 -4 15 -10 15 -5 0
-10 -7 -10 -15z"/>
<path d="M3191 1422 c0 -10 3 -12 5 -5 3 7 12 9 20 6 8 -3 14 -1 14 4 0 5 -9
9 -20 10 -13 1 -20 -4 -19 -15z"/>
<path d="M4150 1389 c-6 -24 -13 -50 -15 -56 -2 -7 -1 -13 3 -13 8 0 33 102
27 109 -2 1 -9 -17 -15 -40z"/>
<path d="M3945 1400 c-8 -14 3 -30 21 -30 8 0 14 -5 14 -11 0 -6 -7 -9 -15 -5
-8 3 -15 1 -15 -4 0 -6 9 -10 20 -10 23 0 27 28 5 36 -8 4 -15 11 -15 16 0 6
7 7 16 4 8 -3 12 -2 9 4 -8 13 -32 13 -40 0z"/>
<path d="M4015 1401 c-8 -14 3 -31 21 -31 17 0 19 -17 2 -23 -8 -2 -7 -3 2 -3
22 2 20 60 -2 64 -9 2 -19 -2 -23 -7z m35 -11 c0 -5 -7 -10 -15 -10 -8 0 -15
5 -15 10 0 6 7 10 15 10 8 0 15 -4 15 -10z"/>
<path d="M4075 1400 c-8 -14 3 -30 21 -30 8 0 14 -5 14 -11 0 -6 -7 -9 -15 -5
-8 3 -15 1 -15 -5 0 -6 8 -9 18 -7 11 2 18 14 20 36 3 26 0 32 -17 32 -11 0
-23 -4 -26 -10z m35 -10 c0 -5 -4 -10 -9 -10 -6 0 -13 5 -16 10 -3 6 1 10 9
10 9 0 16 -4 16 -10z"/>
<path d="M500 1380 c0 -5 7 -10 15 -10 19 0 19 -4 0 -40 -9 -17 -11 -30 -5
-30 9 0 40 62 40 81 0 5 -11 9 -25 9 -14 0 -25 -4 -25 -10z"/>
<path d="M605 1378 c-2 -7 -3 -26 -2 -43 2 -25 6 -30 27 -30 21 0 25 5 25 30
0 35 -11 55 -32 55 -7 0 -15 -6 -18 -12z m35 -18 c0 -5 -4 -10 -10 -10 -5 0
-10 5 -10 10 0 6 5 10 10 10 6 0 10 -4 10 -10z m0 -28 c0 -13 -12 -22 -22 -16
-10 6 -1 24 13 24 5 0 9 -4 9 -8z"/>
<path d="M680 1375 c-15 -19 3 -47 26 -38 8 3 14 0 14 -6 0 -6 -10 -11 -22
-11 -16 0 -19 -3 -11 -11 23 -23 44 -2 41 38 -3 42 -26 55 -48 28z m40 -15 c0
-5 -7 -10 -15 -10 -8 0 -15 5 -15 10 0 6 7 10 15 10 8 0 15 -4 15 -10z"/>
<path d="M789 1369 c-15 -28 4 -72 29 -67 24 5 24 54 0 52 -10 -1 -18 2 -18 7
0 5 9 9 21 9 11 0 17 5 14 10 -10 17 -34 11 -46 -11z m41 -39 c0 -5 -7 -10
-15 -10 -8 0 -15 5 -15 10 0 6 7 10 15 10 8 0 15 -4 15 -10z"/>
<path d="M867 1383 c-15 -15 -7 -43 13 -43 11 0 20 -4 20 -10 0 -5 -8 -10 -17
-10 -13 0 -14 -3 -6 -11 17 -17 43 -3 43 21 0 12 -9 24 -22 30 l-23 9 23 0
c12 1 22 6 22 11 0 11 -43 14 -53 3z"/>
<path d="M945 1381 c-3 -7 3 -11 16 -11 17 0 19 -3 10 -13 -8 -10 -7 -17 2
-27 10 -10 8 -12 -11 -7 -15 3 -22 1 -19 -6 2 -7 12 -12 23 -12 16 0 19 7 19
40 0 29 -4 41 -17 43 -9 2 -19 -2 -23 -7z"/>
<path d="M4180 1366 c0 -15 5 -26 10 -26 6 0 10 9 10 20 0 11 5 20 10 20 6 0
10 -9 10 -20 0 -11 5 -20 10 -20 6 0 10 9 10 20 0 11 5 20 10 20 6 0 10 -9 10
-20 0 -11 5 -20 11 -20 6 0 9 10 7 23 -3 19 -10 22 -50 25 -46 3 -48 2 -48
-22z"/>
<path d="M4292 1368 c2 -15 10 -23 23 -23 13 0 21 8 23 23 3 18 -1 22 -23 22
-22 0 -26 -4 -23 -22z m38 -3 c0 -8 -7 -15 -15 -15 -8 0 -15 7 -15 15 0 8 7
15 15 15 8 0 15 -7 15 -15z"/>
<path d="M1806 1345 c-3 -8 -1 -15 4 -15 6 0 10 7 10 15 0 8 -2 15 -4 15 -2 0
-6 -7 -10 -15z"/>
<path d="M1835 1351 c-3 -5 -1 -12 5 -16 5 -3 10 1 10 9 0 18 -6 21 -15 7z"/>
<path d="M1860 1344 c0 -8 5 -12 10 -9 6 4 8 11 5 16 -9 14 -15 11 -15 -7z"/>
<path d="M1931 1344 c0 -11 3 -14 6 -6 3 7 2 16 -1 19 -3 4 -6 -2 -5 -13z"/>
<path d="M1956 1343 c-6 -14 -5 -15 5 -6 7 7 10 15 7 18 -3 3 -9 -2 -12 -12z"/>
<path d="M2101 1344 c0 -11 3 -14 6 -6 3 7 2 16 -1 19 -3 4 -6 -2 -5 -13z"/>
<path d="M1905 1340 c-3 -5 -1 -10 4 -10 6 0 11 5 11 10 0 6 -2 10 -4 10 -3 0
-8 -4 -11 -10z"/>
<path d="M2046 1341 c9 -9 34 -9 34 -1 0 5 -9 8 -20 7 -10 -1 -17 -3 -14 -6z"/>
<path d="M567 1313 c-4 -3 -7 -11 -7 -17 0 -6 5 -5 12 2 6 6 9 14 7 17 -3 3
-9 2 -12 -2z"/>
<path d="M750 1305 c0 -8 2 -15 4 -15 2 0 6 7 10 15 3 8 1 15 -4 15 -6 0 -10
-7 -10 -15z"/>
<path d="M3522 1044 c-7 -8 -8 -14 -3 -14 10 0 25 19 20 25 -2 1 -10 -3 -17
-11z"/>
<path d="M3740 1050 c0 -5 5 -10 11 -10 5 0 7 5 4 10 -3 6 -8 10 -11 10 -2 0
-4 -4 -4 -10z"/>
<path d="M3550 1030 c0 -11 2 -20 4 -20 2 0 6 9 9 20 3 11 1 20 -4 20 -5 0 -9
-9 -9 -20z"/>
<path d="M3632 1020 c0 -19 2 -27 5 -17 2 9 2 25 0 35 -3 9 -5 1 -5 -18z"/>
<path d="M3652 1030 c0 -14 2 -19 5 -12 2 6 2 18 0 25 -3 6 -5 1 -5 -13z"/>
<path d="M3680 1036 c7 -7 13 -7 20 0 6 6 3 10 -10 10 -13 0 -16 -4 -10 -10z"/>
<path d="M3606 1023 c-6 -14 -5 -15 5 -6 7 7 10 15 7 18 -3 3 -9 -2 -12 -12z"/>
<path d="M3542 710 c0 -14 2 -19 5 -12 2 6 2 18 0 25 -3 6 -5 1 -5 -13z"/>
<path d="M5502 705 c0 -16 2 -22 5 -12 2 9 2 23 0 30 -3 6 -5 -1 -5 -18z"/>
<path d="M3610 716 c0 -2 7 -7 16 -10 8 -3 12 -2 9 4 -6 10 -25 14 -25 6z"/>
<path d="M3650 709 c0 -5 5 -7 10 -4 6 3 10 8 10 11 0 2 -4 4 -10 4 -5 0 -10
-5 -10 -11z"/>
<path d="M1140 656 c0 -8 -6 -17 -12 -19 -8 -3 -6 -6 5 -6 11 -1 17 6 17 19 0
11 -2 20 -5 20 -3 0 -5 -6 -5 -14z"/>
<path d="M446 647 c3 -10 9 -15 12 -12 3 3 0 11 -7 18 -10 9 -11 8 -5 -6z"/>
<path d="M1091 644 c0 -11 3 -14 6 -6 3 7 2 16 -1 19 -3 4 -6 -2 -5 -13z"/>
<path d="M3522 374 c-7 -8 -8 -14 -3 -14 10 0 25 19 20 25 -2 1 -10 -3 -17
-11z"/>
<path d="M3552 361 c2 -8 10 -16 18 -18 13 -4 13 -3 0 6 -13 9 -13 11 3 11 9
0 17 4 17 8 0 4 -9 8 -20 8 -13 0 -20 -6 -18 -15z"/>
<path d="M3604 360 c1 -17 36 -27 36 -11 0 6 -6 8 -14 5 -8 -3 -16 0 -19 8 -3
9 -4 8 -3 -2z"/>
<path d="M3717 373 c-20 -5 -18 -25 4 -31 11 -3 11 -2 -1 7 -13 9 -13 11 3 11
9 0 17 5 17 10 0 6 -1 9 -2 9 -2 -1 -11 -3 -21 -6z"/>
<path d="M3826 368 c3 -5 10 -6 15 -3 13 9 11 12 -6 12 -8 0 -12 -4 -9 -9z"/>
<path d="M3871 364 c0 -11 3 -14 6 -6 3 7 2 16 -1 19 -3 4 -6 -2 -5 -13z"/>
<path d="M3904 360 c1 -8 10 -16 21 -17 15 -1 15 0 3 3 -9 3 -19 11 -21 17 -2
7 -3 5 -3 -3z"/>
<path d="M3986 365 c7 -17 -21 -21 -29 -5 -3 6 -4 5 -3 -2 1 -7 12 -14 24 -16
17 -3 22 2 22 17 0 12 -4 21 -10 21 -5 0 -7 -7 -4 -15z"/>
<path d="M4017 353 c3 -7 6 -13 8 -13 2 0 5 6 8 13 3 8 -1 14 -8 14 -7 0 -11
-6 -8 -14z"/>
<path d="M3670 350 c-13 -8 -12 -10 3 -10 9 0 17 5 17 10 0 12 -1 12 -20 0z"/>
</g>
</svg>
